<svg width="83" height="83" viewBox="0 0 83 83" fill="none" xmlns="http://www.w3.org/2000/svg">
<path d="M83 41.5C83 64.4249 64.4182 83 41.5 83C18.5818 83 0 64.4249 0 41.5C0 18.5885 18.5818 0 41.5 0C64.4182 0 83 18.5885 83 41.5ZM42.6136 13.7218C33.4942 13.7218 27.6778 17.5634 23.1105 24.391C22.5188 25.2755 22.7167 26.4685 23.5648 27.1115L29.3713 31.5142C30.2423 32.1747 31.4833 32.0176 32.16 31.1591C35.1493 27.3676 37.1991 25.1689 41.749 25.1689C45.1676 25.1689 49.396 27.3691 49.396 30.6841C49.396 33.1901 47.3272 34.4771 43.9519 36.3696C40.0154 38.5763 34.8065 41.3228 34.8065 48.1936V48.8629C34.8065 49.9719 35.7056 50.871 36.8145 50.871H46.1855C47.2944 50.871 48.1936 49.9719 48.1936 48.8629V48.6398C48.1936 43.877 62.1138 43.6787 62.1138 30.7903C62.1138 21.0843 52.0459 13.7218 42.6136 13.7218ZM41.5 55.2218C37.2555 55.2218 33.8024 58.6748 33.8024 62.9194C33.8024 67.1637 37.2555 70.6169 41.5 70.6169C45.7445 70.6169 49.1976 67.1637 49.1976 62.9194C49.1976 58.6748 45.7445 55.2218 41.5 55.2218Z" fill="#F17164"/>
</svg>
