<svg width="83" height="83" viewBox="0 0 83 83" fill="none" xmlns="http://www.w3.org/2000/svg">
<path fill-rule="evenodd" clip-rule="evenodd" d="M83 41.5C83 64.4198 64.4198 83 41.5 83C18.5802 83 0 64.4198 0 41.5C0 18.5802 18.5802 0 41.5 0C64.4198 0 83 18.5802 83 41.5ZM58.9156 27.0943C57.9382 26.1133 56.7778 25.3351 55.5005 24.8042C54.2233 24.2733 52.8543 24 51.4718 24C50.0892 24 48.7202 24.2733 47.443 24.8042C46.1657 25.3351 45.0053 26.1133 44.0279 27.0943L41.9995 29.1292L39.9711 27.0943C37.9968 25.1137 35.3192 24.001 32.5272 24.001C29.7352 24.001 27.0576 25.1137 25.0834 27.0943C23.1091 29.0748 22 31.761 22 34.562C22 37.3629 23.1091 40.0491 25.0834 42.0297L41.9995 59L58.9156 42.0297C59.8935 41.0492 60.6691 39.885 61.1984 38.6037C61.7276 37.3223 62 35.9489 62 34.562C62 33.175 61.7276 31.8016 61.1984 30.5203C60.6691 29.2389 59.8935 28.0748 58.9156 27.0943Z" fill="#F17164"/>
</svg>
