<svg width="42" height="42" viewBox="0 0 42 42" fill="none" xmlns="http://www.w3.org/2000/svg">
<path d="M21 42C32.598 42 42 32.598 42 21C42 9.40202 32.598 0 21 0C9.40202 0 0 9.40202 0 21C0 32.598 9.40202 42 21 42ZM30.3614 24.2892C30.3614 24.826 30.1482 25.3408 29.7686 25.7204C29.389 26.1 28.8742 26.3133 28.3374 26.3133H16.1928L12.1446 30.3614V14.1687C12.1446 13.6319 12.3578 13.117 12.7374 12.7374C13.117 12.3578 13.6319 12.1446 14.1687 12.1446H28.3374C28.8742 12.1446 29.389 12.3578 29.7686 12.7374C30.1482 13.117 30.3614 13.6319 30.3614 14.1687V24.2892Z" fill="#F17164"/>
</svg>
