<svg width="42" height="42" viewBox="0 0 42 42" fill="none" xmlns="http://www.w3.org/2000/svg">
<path d="M21 42C32.598 42 42 32.598 42 21C42 9.40202 32.598 0 21 0C9.40202 0 0 9.40202 0 21C0 32.598 9.40202 42 21 42ZM31.2603 26.2324V29.2685C31.2614 29.5504 31.2037 29.8294 31.0908 30.0876C30.9778 30.3459 30.8122 30.5777 30.6045 30.7683C30.3968 30.9588 30.1516 31.1039 29.8846 31.1942C29.6176 31.2845 29.3347 31.318 29.054 31.2926C25.9398 30.9542 22.9483 29.8901 20.32 28.1856C17.8747 26.6318 15.8016 24.5586 14.2477 22.1134C12.5374 19.4731 11.4729 16.4671 11.1407 13.3389C11.1155 13.059 11.1487 12.777 11.2384 12.5107C11.3281 12.2444 11.4723 11.9996 11.6617 11.7921C11.8512 11.5846 12.0818 11.4187 12.3388 11.3052C12.5958 11.1917 12.8737 11.1329 13.1547 11.1326H16.1909C16.682 11.1278 17.1582 11.3017 17.5306 11.622C17.903 11.9423 18.1462 12.387 18.215 12.8734C18.3431 13.845 18.5808 14.799 18.9234 15.7172C19.0596 16.0794 19.089 16.4731 19.0083 16.8516C18.9276 17.2301 18.7401 17.5775 18.468 17.8526L17.1827 19.1379C18.6234 21.6716 20.7213 23.7695 23.255 25.2102L24.5403 23.9249C24.8154 23.6528 25.1628 23.4653 25.5413 23.3846C25.9198 23.3039 26.3134 23.3333 26.6757 23.4695C27.5939 23.8121 28.5479 24.0498 29.5195 24.1779C30.0112 24.2473 30.4601 24.4949 30.7811 24.8737C31.102 25.2525 31.2726 25.7361 31.2603 26.2324Z" fill="#F17164"/>
</svg>
