<svg width="83" height="83" viewBox="0 0 83 83" fill="none" xmlns="http://www.w3.org/2000/svg">
<path d="M41.5 83C64.4198 83 83 64.4198 83 41.5C83 18.5802 64.4198 0 41.5 0C18.5802 0 0 18.5802 0 41.5C0 64.4198 18.5802 83 41.5 83ZM61.7762 51.8402V57.8402C61.7785 58.3972 61.6644 58.9485 61.4413 59.4589C61.2181 59.9692 60.8908 60.4274 60.4804 60.8039C60.0699 61.1805 59.5854 61.4672 59.0577 61.6456C58.5301 61.8241 57.971 61.8903 57.4162 61.8402C51.2619 61.1715 45.3502 59.0685 40.1562 55.7002C35.3239 52.6295 31.2269 48.5325 28.1562 43.7002C24.7762 38.4826 22.6727 32.5422 22.0162 26.3602C21.9663 25.8071 22.032 25.2497 22.2092 24.7234C22.3865 24.1972 22.6714 23.7136 23.0458 23.3034C23.4202 22.8933 23.8758 22.5656 24.3838 22.3412C24.8918 22.1169 25.4409 22.0007 25.9962 22.0002H31.9962C32.9668 21.9906 33.9078 22.3344 34.6438 22.9673C35.3797 23.6002 35.8604 24.4791 35.9962 25.4402C36.2495 27.3603 36.7191 29.2456 37.3962 31.0602C37.6653 31.776 37.7236 32.554 37.564 33.302C37.4045 34.0499 37.034 34.7364 36.4962 35.2802L33.9562 37.8202C36.8033 42.8273 40.9491 46.9731 45.9562 49.8202L48.4962 47.2802C49.04 46.7425 49.7265 46.3719 50.4745 46.2124C51.2224 46.0529 52.0004 46.1111 52.7162 46.3802C54.5308 47.0573 56.4161 47.527 58.3362 47.7802C59.3078 47.9173 60.195 48.4066 60.8293 49.1552C61.4636 49.9038 61.8006 50.8593 61.7762 51.8402Z" fill="#F17164"/>
</svg>
