<svg width="60" height="60" viewBox="0 0 60 60" fill="none" xmlns="http://www.w3.org/2000/svg">
<path d="M30 60C46.5685 60 60 46.5685 60 30C60 13.4315 46.5685 0 30 0C13.4315 0 0 13.4315 0 30C0 46.5685 13.4315 60 30 60ZM43.3735 34.6988C43.3735 35.4657 43.0688 36.2012 42.5266 36.7434C41.9843 37.2857 41.2488 37.5904 40.4819 37.5904H23.1325L17.3494 43.3735V20.241C17.3494 19.4741 17.654 18.7386 18.1963 18.1963C18.7386 17.654 19.4741 17.3494 20.241 17.3494H40.4819C41.2488 17.3494 41.9843 17.654 42.5266 18.1963C43.0688 18.7386 43.3735 19.4741 43.3735 20.241V34.6988Z" fill="#F17164"/>
</svg>
