<svg width="60" height="60" viewBox="0 0 60 60" fill="none" xmlns="http://www.w3.org/2000/svg">
<path d="M30 60C46.5685 60 60 46.5685 60 30C60 13.4315 46.5685 0 30 0C13.4315 0 0 13.4315 0 30C0 46.5685 13.4315 60 30 60ZM23.2973 42.2492C16.3442 32.2731 14.8905 30.1873 14.8905 25.073C14.8905 16.5468 21.7533 9.63504 30.219 9.63504C38.6847 9.63504 45.5474 16.5468 45.5474 25.073C45.5474 30.1873 44.0938 32.273 37.1408 42.249C35.6315 44.4145 33.8631 46.9517 31.7943 49.9723C31.0331 51.0798 29.4048 51.0797 28.6437 49.9723C26.5748 46.9517 24.8065 44.4146 23.2973 42.2492ZM36.6058 25.073C36.6058 28.6256 33.7464 31.5055 30.219 31.5055C26.6916 31.5055 23.8321 28.6256 23.8321 25.073C23.8321 21.5204 26.6916 18.6405 30.219 18.6405C33.7464 18.6405 36.6058 21.5204 36.6058 25.073Z" fill="#F17164"/>
</svg>
