<svg width="49" height="49" viewBox="0 0 49 49" fill="none" xmlns="http://www.w3.org/2000/svg">
<path fill-rule="evenodd" clip-rule="evenodd" d="M41.6005 7.11123C37.0227 2.52796 30.935 0.00270081 24.4504 0C11.0868 0 0.207962 10.8762 0.202561 24.2451C0.202561 28.5178 1.31799 32.6879 3.43813 36.3664L0 48.9278L12.8531 45.5545C16.3966 47.4856 20.383 48.5038 24.4396 48.5065H24.4504C37.8113 48.5065 48.6902 37.6303 48.6956 24.2614C48.6956 17.7848 46.1784 11.6945 41.6005 7.11123ZM24.4504 44.4148H24.4423C20.8259 44.4121 17.2798 43.4425 14.1846 41.6032L13.45 41.1657L5.82294 43.167L7.85665 35.7317L7.37861 34.9701C5.3611 31.7615 4.29698 28.0533 4.29698 24.2451C4.30239 13.134 13.342 4.09442 24.4585 4.09442C29.8412 4.09712 34.8998 6.19565 38.7053 10.0038C42.508 13.8146 44.6038 18.8759 44.6011 24.2614C44.5957 35.3725 35.5561 44.4148 24.4504 44.4148ZM35.5048 29.32C34.8971 29.0148 31.9208 27.5509 31.3645 27.3484C30.8108 27.1458 30.4084 27.0459 30.0033 27.6509C29.5981 28.2558 28.4368 29.6198 28.083 30.0249C27.7292 30.43 27.3754 30.4786 26.7704 30.1761C26.1654 29.8736 24.2127 29.2335 21.8981 27.1701C20.0967 25.5631 18.8813 23.5807 18.5275 22.9731C18.1737 22.3654 18.4897 22.0386 18.7949 21.7361C19.0677 21.466 19.3999 21.0285 19.7024 20.6747C20.0049 20.3209 20.1048 20.0697 20.3074 19.6646C20.5099 19.2595 20.41 18.9056 20.2561 18.6032C20.1048 18.298 18.8921 15.3163 18.3871 14.1036C17.8982 12.9288 17.3986 13.0854 17.0259 13.0692C16.6748 13.053 16.2697 13.0476 15.8672 13.0476C15.4621 13.0476 14.8058 13.1988 14.2495 13.8038C13.6931 14.4115 12.1293 15.8753 12.1293 18.857C12.1293 21.8387 14.3008 24.7205 14.6033 25.1256C14.9058 25.5307 18.8759 31.6481 24.9528 34.2732C26.4004 34.8971 27.5293 35.2698 28.4071 35.5507C29.8574 36.0126 31.1781 35.945 32.2233 35.7911C33.3874 35.6182 35.8073 34.3273 36.3124 32.912C36.8174 31.4968 36.8174 30.2842 36.6662 30.0303C36.5149 29.7764 36.1071 29.6225 35.5048 29.32Z" fill="#202F8D"/>
</svg>
